<?xml version="1.0" encoding="UTF-8" standalone="no"?>
<!-- Created with Inkscape (http://www.inkscape.org/) -->

<svg
   xmlns:dc="http://purl.org/dc/elements/1.1/"
   xmlns:cc="http://creativecommons.org/ns#"
   xmlns:rdf="http://www.w3.org/1999/02/22-rdf-syntax-ns#"
   xmlns:svg="http://www.w3.org/2000/svg"
   xmlns="http://www.w3.org/2000/svg"
   xmlns:sodipodi="http://sodipodi.sourceforge.net/DTD/sodipodi-0.dtd"
   xmlns:inkscape="http://www.inkscape.org/namespaces/inkscape"
   width="60.739288"
   height="60.739239"
   viewBox="0 0 16.070603 16.07059"
   version="1.1"
   id="svg8"
   inkscape:version="0.92.3 (2405546, 2018-03-11)"
   sodipodi:docname="close.svg">
  <defs
     id="defs2" />
  <sodipodi:namedview
     id="base"
     pagecolor="#ffffff"
     bordercolor="#666666"
     borderopacity="1.0"
     inkscape:pageopacity="0.0"
     inkscape:pageshadow="2"
     inkscape:zoom="7.137492"
     inkscape:cx="-5.8819633"
     inkscape:cy="21.163384"
     inkscape:document-units="px"
     inkscape:current-layer="layer1"
     showgrid="false"
     units="px"
     inkscape:pagecheckerboard="true"
     inkscape:showpageshadow="false"
     inkscape:window-width="1335"
     inkscape:window-height="802"
     inkscape:window-x="210"
     inkscape:window-y="256"
     inkscape:window-maximized="0"
     inkscape:snap-global="true"
     fit-margin-top="5"
     fit-margin-left="5"
     fit-margin-right="5"
     fit-margin-bottom="5" />
  <metadata
     id="metadata5">
    <rdf:RDF>
      <cc:Work
         rdf:about="">
        <dc:format>image/svg+xml</dc:format>
        <dc:type
           rdf:resource="http://purl.org/dc/dcmitype/StillImage" />
        <dc:title />
      </cc:Work>
    </rdf:RDF>
  </metadata>
  <g
     inkscape:label="Layer 1"
     inkscape:groupmode="layer"
     id="layer1"
     transform="translate(1.2817362,-283.026)">
    <g
       id="active-center"
       transform="translate(9.514988,0.18350584)">
      <rect
         y="284.05167"
         x="-9.279974"
         height="6.614583"
         width="6.614583"
         id="rect3862"
         style="opacity:1;fill:none;fill-opacity:0.24882633;fill-rule:nonzero;stroke:none;stroke-width:0.25183001;stroke-linecap:square;stroke-linejoin:round;stroke-miterlimit:4;stroke-dasharray:none;stroke-dashoffset:0;stroke-opacity:1" />
      <path
         inkscape:connector-curvature="0"
         id="rect855"
         d="m -6.992154,286.05119 -0.2883676,0.28838 c -0.01029,0.0114 0.4280117,0.46282 0.9811287,1.01907 -0.553309,0.55643 -0.9914085,1.00948 -0.9811287,1.01978 l 0.2883676,0.28833 c 0.01029,0.0114 0.4634872,-0.42796 1.0198039,-0.98108 0.5563164,0.55312 1.0088474,0.99137 1.0191252,0.98108 l 0.2883677,-0.28833 c 0.010291,-0.0114 -0.4271409,-0.46335 -0.9804498,-1.01978 0.5531167,-0.55625 0.9907274,-1.00881 0.9804498,-1.01907 l -0.2883677,-0.28838 c -0.01029,-0.0114 -0.4628088,0.42797 -1.0191252,0.98112 -0.5563167,-0.55315 -1.009526,-0.99139 -1.0198039,-0.98112 z"
         style="opacity:1;fill:#f8f8f8;fill-opacity:1;fill-rule:nonzero;stroke:#f8f8f8;stroke-width:0.23362708;stroke-linecap:square;stroke-linejoin:round;stroke-miterlimit:4;stroke-dasharray:none;stroke-dashoffset:0;stroke-opacity:1" />
    </g>
    <g
       id="hover-center"
       transform="translate(47.766743,4.7564734)">
      <rect
         style="opacity:1;fill:none;fill-opacity:0.24882633;fill-rule:nonzero;stroke:none;stroke-width:0.25183001;stroke-linecap:square;stroke-linejoin:round;stroke-miterlimit:4;stroke-dasharray:none;stroke-dashoffset:0;stroke-opacity:1"
         id="rect2079"
         width="6.614583"
         height="6.614583"
         x="-40.917145"
         y="279.4787" />
      <rect
         style="opacity:1;fill:#ff2601;fill-opacity:0.64251208;fill-rule:evenodd;stroke:none;stroke-width:0.23362707;stroke-linecap:round;stroke-linejoin:round;stroke-miterlimit:4;stroke-dasharray:none;stroke-dashoffset:0;stroke-opacity:1;paint-order:normal"
         id="rect2700"
         width="5.8208332"
         height="5.8208332"
         x="-40.520271"
         y="279.87558"
         ry="2.9104166" />
      <path
         style="opacity:1;fill:#f8f8f8;fill-opacity:1;fill-rule:nonzero;stroke:#f8f8f8;stroke-width:0.23362708;stroke-linecap:square;stroke-linejoin:round;stroke-miterlimit:4;stroke-dasharray:none;stroke-dashoffset:0;stroke-opacity:1"
         d="m -38.629329,281.47822 -0.288368,0.28838 c -0.01029,0.0114 0.428012,0.46282 0.981129,1.01907 -0.553309,0.55643 -0.991408,1.00948 -0.981129,1.01978 l 0.288368,0.28833 c 0.01029,0.0114 0.463487,-0.42796 1.019804,-0.98108 0.556316,0.55312 1.008847,0.99137 1.019125,0.98108 l 0.288368,-0.28833 c 0.01029,-0.0114 -0.427141,-0.46335 -0.98045,-1.01978 0.553117,-0.55625 0.990727,-1.00881 0.98045,-1.01907 l -0.288368,-0.28838 c -0.01029,-0.0114 -0.462809,0.42797 -1.019125,0.98112 -0.556317,-0.55315 -1.009526,-0.99139 -1.019804,-0.98112 z"
         id="path2083"
         inkscape:connector-curvature="0" />
    </g>
    <g
       id="pressed-center"
       transform="translate(24.841578,-3.3825952)">
      <rect
         style="opacity:1;fill:none;fill-opacity:0.24882633;fill-rule:nonzero;stroke:none;stroke-width:0.25183001;stroke-linecap:square;stroke-linejoin:round;stroke-miterlimit:4;stroke-dasharray:none;stroke-dashoffset:0;stroke-opacity:1"
         id="rect836"
         width="6.614583"
         height="6.614583"
         x="-24.606564"
         y="294.23236" />
      <path
         style="opacity:1;fill:#ff2601;fill-opacity:0.50196078;fill-rule:nonzero;stroke:#ff2601;stroke-width:0.18071041;stroke-linecap:square;stroke-linejoin:round;stroke-miterlimit:4;stroke-dasharray:none;stroke-dashoffset:0;stroke-opacity:0.50196078"
         d="m -22.102098,296.50979 -0.227087,0.2271 c -0.0081,0.009 0.337055,0.36447 0.772629,0.80252 -0.435725,0.43819 -0.780724,0.79496 -0.772629,0.80307 l 0.227087,0.22707 c 0.0081,0.009 0.364991,-0.33702 0.803086,-0.77261 0.438094,0.43559 0.794457,0.78071 0.802551,0.77261 l 0.227087,-0.22707 c 0.0081,-0.009 -0.33637,-0.36488 -0.772095,-0.80307 0.435574,-0.43805 0.780188,-0.79444 0.772095,-0.80252 l -0.227087,-0.2271 c -0.0081,-0.009 -0.364457,0.33703 -0.802551,0.77263 -0.438094,-0.4356 -0.794992,-0.78071 -0.803086,-0.77263 z"
         id="path840"
         inkscape:connector-curvature="0" />
      <rect
         style="opacity:1;fill:none;fill-opacity:0.5024155;fill-rule:evenodd;stroke:#ff2601;stroke-width:0.2336271;stroke-linecap:round;stroke-linejoin:round;stroke-miterlimit:4;stroke-dasharray:none;stroke-dashoffset:0;stroke-opacity:0.50196078;paint-order:normal"
         id="rect2713"
         width="5.5872059"
         height="5.5872059"
         x="-24.092875"
         y="294.74606"
         rx="2.7936029"
         ry="2.7936029" />
    </g>
    <g
       transform="translate(17.649421,7.0205165)"
       id="inactive-center">
      <rect
         style="opacity:1;fill:none;fill-opacity:0.24882633;fill-rule:nonzero;stroke:none;stroke-width:0.25183001;stroke-linecap:square;stroke-linejoin:round;stroke-miterlimit:4;stroke-dasharray:none;stroke-dashoffset:0;stroke-opacity:1"
         id="rect2670"
         width="6.614583"
         height="6.614583"
         x="-9.279974"
         y="284.05167" />
      <path
         style="opacity:1;fill:#585858;fill-opacity:0.3764706;fill-rule:nonzero;stroke:#585858;stroke-width:0.88300002;stroke-linecap:square;stroke-linejoin:round;stroke-miterlimit:4;stroke-dasharray:none;stroke-dashoffset:0;stroke-opacity:0.3764706"
         d="m 39.378906,37.126953 -1.089844,1.089844 c -0.03889,0.04309 1.618464,1.7492 3.708985,3.851562 -2.091247,2.103043 -3.747837,3.81654 -3.708985,3.855469 l 1.089844,1.089844 c 0.03889,0.04309 1.752855,-1.618452 3.855469,-3.708984 2.102613,2.090532 3.812717,3.747875 3.851563,3.708984 l 1.089843,-1.089844 c 0.03889,-0.04309 -1.613832,-1.752426 -3.705078,-3.855469 2.09052,-2.102362 3.743923,-3.812784 3.705078,-3.851562 l -1.089843,-1.089844 c -0.03889,-0.04309 -1.74895,1.618339 -3.851563,3.708985 -2.102614,-2.090646 -3.816623,-3.747801 -3.855469,-3.708985 z"
         transform="matrix(0.26458333,0,0,0.26458333,-17.411307,276.2279)"
         id="path2672"
         inkscape:connector-curvature="0" />
    </g>
  </g>
</svg>
